<?xml version="1.0" encoding="utf-8"?>
<!-- Generator: Adobe Illustrator 27.5.0, SVG Export Plug-In . SVG Version: 6.00 Build 0)  -->
<svg version="1.1" xmlns="http://www.w3.org/2000/svg" xmlns:xlink="http://www.w3.org/1999/xlink" x="0px" y="0px"
	 viewBox="0 0 500 500" style="enable-background:new 0 0 500 500;" xml:space="preserve">
<g id="BACKGROUND">
	<rect style="fill:#24242E;" width="500" height="500"/>
</g>
<g id="OBJECTS">
	<g>
		<path style="fill:#55A9C0;" d="M389.088,382.596H107.043c-2.667,0-4.85-2.182-4.85-4.85v-12.564c0-2.667,2.182-4.85,4.85-4.85
			h282.045c2.667,0,4.85,2.182,4.85,4.85v12.564C393.938,380.414,391.755,382.596,389.088,382.596z"/>
		<text transform="matrix(1 0 0 1 92.0107 351.4722)" style="fill:#FFFFFF; font-family:'Montserrat-Bold'; font-size:45.6306px;">BrayanDev</text>
		<g>
			
				<text transform="matrix(1 0 0 1 109.8779 378.5113)" style="fill:#24242E; font-family:'Montserrat-Regular'; font-size:19.6497px; letter-spacing:3;">Web developer</text>
		</g>
	</g>
	<g>
		<path style="fill:#FFFFFF;" d="M323.206,162.637h-150.28c-2.702,0-4.893,2.287-4.893,5.109v93.884
			c0,2.335,1.813,4.228,4.049,4.228h151.967c2.236,0,4.049-1.893,4.049-4.228v-93.884
			C328.098,164.924,325.908,162.637,323.206,162.637z M322.786,257.294c0,2.066-1.604,3.74-3.582,3.74H176.927
			c-1.978,0-3.582-1.674-3.582-3.74v-85.212c0-2.552,1.981-4.621,4.426-4.621H318.36c2.444,0,4.426,2.069,4.426,4.621V257.294z"/>
		<path style="fill:#FFFFFF;" d="M348.993,307.903H147.639c-1.411,0-2.555-1.144-2.555-2.556V304.8c0-1.411,1.144-2.555,2.555-2.555
			h201.355c1.411,0,2.556,1.144,2.556,2.555v0.548C351.549,306.759,350.405,307.903,348.993,307.903z"/>
		<path style="fill:#FFFFFF;" d="M279.22,237.227l-7.136-7.136c-1.28-1.28-1.28-3.356,0-4.637l7.136-7.136
			c1.28-1.28,3.356-1.28,4.637,0l7.136,7.136c1.28,1.28,1.28,3.356,0,4.637l-7.136,7.136
			C282.577,238.508,280.501,238.508,279.22,237.227z"/>
		<path style="fill:#FFFFFF;" d="M253.224,190.759l-6.788-6.788c-0.471-0.471-0.471-1.234,0-1.704l6.788-6.788
			c0.471-0.471,1.234-0.471,1.704,0l6.788,6.788c0.471,0.471,0.471,1.233,0,1.704l-6.788,6.788
			C254.457,191.23,253.694,191.23,253.224,190.759z"/>
		<g>
			<path style="fill:#55A9C0;" d="M269.24,190.936c-0.481,0-0.934-0.188-1.274-0.529l-3.733-3.732c-0.702-0.704-0.702-1.847,0-2.549
				l3.733-3.733c0.681-0.683,1.869-0.681,2.549,0l3.733,3.733c0.703,0.702,0.703,1.845,0.001,2.548l-3.734,3.733
				C270.175,190.748,269.722,190.936,269.24,190.936z M269.24,181.5c-0.042,0-0.085,0.016-0.118,0.049l-3.733,3.733
				c-0.065,0.066-0.065,0.172,0.001,0.238l3.732,3.732c0.066,0.066,0.172,0.065,0.237,0l3.733-3.732
				c0.065-0.065,0.065-0.172,0-0.237l-3.733-3.733C269.326,181.516,269.283,181.5,269.24,181.5z"/>
		</g>
		<g>
			<path style="fill:#FFFFFF;" d="M145.082,241.239c-0.816,0-1.584-0.318-2.16-0.896l-6.329-6.327c-1.191-1.194-1.191-3.132,0-4.322
				l6.329-6.329c1.154-1.157,3.168-1.154,4.322,0l6.329,6.329c1.191,1.19,1.191,3.128,0.001,4.32l-6.33,6.329
				C146.667,240.921,145.9,241.239,145.082,241.239z M145.082,225.242c-0.072,0-0.145,0.027-0.2,0.083l-6.329,6.329
				c-0.111,0.111-0.11,0.291,0.001,0.403l6.328,6.326c0.112,0.112,0.292,0.111,0.402,0l6.329-6.328c0.11-0.111,0.111-0.291,0-0.402
				l-6.329-6.329C145.228,225.27,145.155,225.242,145.082,225.242z"/>
		</g>
		<g>
			<path style="fill:#55A9C0;" d="M250.701,256.169c-0.481,0-0.934-0.188-1.274-0.529l-3.733-3.732
				c-0.703-0.702-0.703-1.847,0-2.549l3.733-3.733c0.68-0.682,1.869-0.682,2.549,0l3.733,3.733c0.341,0.34,0.528,0.793,0.528,1.275
				c0,0.481-0.188,0.934-0.528,1.274l-3.733,3.732C251.636,255.981,251.183,256.169,250.701,256.169z M250.701,246.733
				c-0.042,0-0.085,0.016-0.118,0.049l-3.733,3.733c-0.065,0.066-0.065,0.172,0,0.237l3.733,3.732c0.066,0.066,0.172,0.065,0.237,0
				l3.733-3.732c0.065-0.065,0.065-0.172,0-0.237l-3.733-3.733C250.787,246.749,250.744,246.733,250.701,246.733z"/>
		</g>
		<g>
			<path style="fill:#55A9C0;" d="M298.578,237.403c-0.462,0-0.922-0.175-1.273-0.525l-3.733-3.734
				c-0.341-0.34-0.529-0.793-0.529-1.274c0-0.482,0.188-0.935,0.529-1.275l3.732-3.733c0.681-0.683,1.87-0.681,2.549,0l3.733,3.733
				c0.341,0.34,0.529,0.793,0.529,1.275c0,0.481-0.188,0.934-0.529,1.274l-3.733,3.733
				C299.502,237.228,299.039,237.403,298.578,237.403z M298.459,235.72c0.066,0.066,0.173,0.065,0.239,0l3.732-3.732
				c0.065-0.065,0.065-0.172,0-0.237l-3.733-3.733c-0.065-0.065-0.171-0.066-0.237,0l-3.732,3.733c-0.065,0.066-0.065,0.172,0,0.237
				L298.459,235.72z"/>
		</g>
		<g>
			<path style="fill:#FFFFFF;" d="M245.165,149.253c-0.923,0-1.844-0.35-2.547-1.051l-7.466-7.467
				c-0.682-0.68-1.057-1.585-1.057-2.548c0-0.964,0.375-1.87,1.057-2.55l7.464-7.466c1.362-1.365,3.739-1.362,5.098,0l7.466,7.466
				c0.682,0.68,1.057,1.586,1.057,2.55c0,0.963-0.375,1.868-1.057,2.548l-7.466,7.466
				C247.012,148.904,246.088,149.253,245.165,149.253z M244.927,145.888c0.131,0.132,0.346,0.129,0.477,0l7.464-7.464
				c0.131-0.131,0.131-0.343,0-0.474l-7.466-7.466c-0.129-0.129-0.342-0.133-0.474,0l-7.464,7.466c-0.131,0.131-0.131,0.343,0,0.474
				L244.927,145.888z"/>
		</g>
		<g>
			<path style="fill:#55A9C0;" d="M196.031,218.042c-0.461,0-0.923-0.176-1.275-0.527l-5.507-5.507
				c-0.703-0.703-0.703-1.847,0-2.549l5.507-5.507c0.702-0.702,1.846-0.702,2.549,0l5.507,5.507c0.703,0.702,0.703,1.846,0,2.549
				l-5.507,5.507C196.955,217.867,196.493,218.042,196.031,218.042z M196.031,205.06c-0.043,0-0.086,0.016-0.119,0.049l-5.507,5.507
				c-0.065,0.065-0.065,0.172,0,0.237l5.507,5.507c0.066,0.066,0.172,0.066,0.237,0l5.507-5.507c0.065-0.066,0.065-0.172,0-0.237
				l-5.507-5.507C196.117,205.076,196.074,205.06,196.031,205.06z"/>
		</g>
		<g>
			<path style="fill:#FFFFFF;" d="M351.507,264.444c-0.599,0-1.198-0.228-1.654-0.684l-7.148-7.148
				c-0.912-0.912-0.912-2.397,0-3.309l7.148-7.148c0.912-0.912,2.397-0.912,3.309,0l7.148,7.148c0.912,0.912,0.912,2.397,0,3.309
				l-7.148,7.148C352.705,264.216,352.106,264.444,351.507,264.444z M351.507,247.592c-0.055,0-0.111,0.021-0.154,0.063
				l-7.148,7.148c-0.085,0.085-0.085,0.223,0,0.308l7.148,7.148c0.085,0.085,0.223,0.085,0.308,0l7.148-7.148
				c0.085-0.085,0.085-0.223,0-0.308l-7.148-7.148C351.618,247.613,351.562,247.592,351.507,247.592z"/>
		</g>
		<path style="fill:#FFFFFF;" d="M236.539,254.541l-6.788-6.788c-0.471-0.471-0.471-1.234,0-1.704l6.788-6.788
			c0.471-0.471,1.234-0.471,1.704,0l6.788,6.788c0.471,0.471,0.471,1.234,0,1.704l-6.788,6.788
			C237.773,255.012,237.01,255.012,236.539,254.541z"/>
		<path style="fill:#FFFFFF;" d="M212.232,214.734l-7.764-7.764c-1.288-1.288-1.288-3.375,0-4.662l7.764-7.764
			c1.288-1.287,3.375-1.287,4.662,0l7.764,7.764c1.287,1.287,1.287,3.375,0,4.662l-7.764,7.764
			C215.607,216.022,213.519,216.022,212.232,214.734z"/>
		<path style="fill:#55A9C0;" d="M269.032,212.592L250.69,194.25c-1.404-1.404-3.681-1.404-5.085,0l-18.342,18.342
			c-1.404,1.404-1.404,3.681,0,5.085l18.342,18.342c1.404,1.404,3.681,1.404,5.085,0l18.342-18.342
			C270.436,216.274,270.436,213.997,269.032,212.592z M246.921,201.395c0-0.677,0.549-1.226,1.226-1.226s1.226,0.549,1.226,1.226
			v11.277c0,0.677-0.549,1.226-1.226,1.226s-1.226-0.549-1.226-1.226V201.395z M248.147,225.786c-6.32,0-11.463-5.142-11.463-11.463
			c0-3.415,1.507-6.626,4.133-8.813c0.521-0.434,1.293-0.363,1.727,0.157c0.433,0.52,0.362,1.294-0.158,1.727
			c-2.065,1.72-3.25,4.245-3.25,6.929c0,4.968,4.042,9.01,9.01,9.01c4.968,0,9.01-4.042,9.01-9.01c0-2.674-1.177-5.193-3.229-6.911
			c-0.519-0.435-0.588-1.209-0.153-1.728c0.435-0.52,1.207-0.588,1.728-0.153c2.611,2.186,4.107,5.39,4.107,8.792
			C259.61,220.643,254.468,225.786,248.147,225.786z"/>
		<path style="fill:#55A9C0;" d="M352.718,294.033l-23.591-24.763c-0.657-0.689-1.567-1.079-2.519-1.079H169.523
			c-0.952,0-1.862,0.39-2.519,1.079l-23.591,24.763c-2.11,2.215-0.54,5.878,2.519,5.878h204.268
			C353.258,299.911,354.828,296.248,352.718,294.033z M175.434,272.57h145.764c0.677,0,1.226,0.549,1.226,1.226
			s-0.549,1.226-1.226,1.226H175.434c-0.677,0-1.226-0.549-1.226-1.226S174.757,272.57,175.434,272.57z M273.515,295.869h-50.399
			c-1.276,0-1.933-1.528-1.053-2.453l6.673-7.026c0.274-0.289,0.655-0.452,1.053-0.452h37.052c0.398,0,0.779,0.164,1.053,0.452
			l6.673,7.026C275.448,294.341,274.792,295.869,273.515,295.869z M327.957,281.458H168.675c-0.677,0-1.226-0.549-1.226-1.226
			s0.549-1.226,1.226-1.226h159.282c0.677,0,1.226,0.549,1.226,1.226S328.634,281.458,327.957,281.458z"/>
		<g>
			<path style="fill:#55A9C0;" d="M134.366,307.233c-1.002,0-1.974-0.527-2.499-1.463c-8.285-14.784-13.599-30.793-15.795-47.582
				c-0.205-1.567,0.899-3.003,2.466-3.208c1.564-0.193,3.003,0.899,3.208,2.466c2.1,16.063,7.185,31.381,15.112,45.527
				c0.772,1.379,0.281,3.122-1.097,3.895C135.319,307.115,134.839,307.233,134.366,307.233z"/>
		</g>
		<g>
			<path style="fill:#55A9C0;" d="M117.91,238.412c-0.038,0-0.077-0.001-0.115-0.002c-1.579-0.062-2.809-1.393-2.746-2.972
				c0.208-5.257,0.729-10.542,1.55-15.708c4.457-28.046,17.536-53.483,37.822-73.561c1.123-1.113,2.934-1.103,4.046,0.021
				c1.111,1.123,1.102,2.935-0.021,4.046c-19.415,19.216-31.932,43.558-36.196,70.393c-0.785,4.943-1.285,10.002-1.484,15.036
				C120.706,237.204,119.438,238.412,117.91,238.412z"/>
		</g>
		<g>
			<path style="fill:#55A9C0;" d="M182.515,131.057c-0.984,0-1.942-0.508-2.474-1.42c-0.796-1.364-0.336-3.117,1.029-3.913
				c20.251-11.816,43.418-18.062,66.995-18.062c18.944,0,37.245,3.897,54.395,11.584c1.442,0.647,2.087,2.34,1.44,3.782
				c-0.647,1.441-2.34,2.086-3.781,1.441c-16.408-7.355-33.922-11.084-52.054-11.084c-22.565,0-44.735,5.976-64.111,17.282
				C183.501,130.931,183.005,131.057,182.515,131.057z"/>
		</g>
		<g>
			<path style="fill:#55A9C0;" d="M377.47,228.647c-1.435,0-2.672-1.076-2.84-2.535c-4.445-38.77-27.109-74.043-60.626-94.358
				c-1.351-0.819-1.783-2.579-0.964-3.93c0.819-1.351,2.579-1.783,3.93-0.964c17.077,10.35,31.862,24.672,42.757,41.419
				c11.142,17.126,18.262,36.899,20.588,57.182c0.18,1.57-0.947,2.988-2.517,3.169C377.688,228.641,377.578,228.647,377.47,228.647z
				"/>
		</g>
		<g>
			<path style="fill:#55A9C0;" d="M361.766,307.233c-0.474,0-0.954-0.118-1.396-0.366c-1.379-0.772-1.87-2.516-1.097-3.894
				c10.594-18.902,16.193-40.407,16.193-62.189c0-1.58,1.281-2.861,2.861-2.861c1.58,0,2.861,1.281,2.861,2.861
				c0,22.76-5.853,45.231-16.925,64.986C363.739,306.707,362.767,307.233,361.766,307.233z"/>
		</g>
		<g>
			<path style="fill:#FFFFFF;" d="M123.46,306.416c-0.743,0-1.46-0.407-1.821-1.115c-10.273-20.093-15.482-41.799-15.482-64.518
				c0-16.584,2.835-32.828,8.426-48.283c0.384-1.062,1.557-1.609,2.617-1.226c1.061,0.384,1.611,1.555,1.227,2.617
				c-5.429,15.007-8.182,30.784-8.182,46.892c0,22.065,5.058,43.146,15.034,62.658c0.514,1.004,0.116,2.236-0.889,2.749
				C124.092,306.343,123.773,306.416,123.46,306.416z"/>
		</g>
		<g>
			<path style="fill:#FFFFFF;" d="M123.279,179.589c-0.311,0-0.627-0.072-0.924-0.222c-1.006-0.512-1.408-1.741-0.897-2.748
				c23.185-45.658,69.304-75.396,120.36-77.609c1.127-0.025,2.082,0.826,2.13,1.953c0.049,1.128-0.826,2.081-1.953,2.131
				c-49.584,2.148-94.375,31.03-116.893,75.375C124.743,179.179,124.024,179.589,123.279,179.589z"/>
		</g>
		<g>
			<path style="fill:#FFFFFF;" d="M360.33,159.392c-0.624,0-1.24-0.284-1.641-0.823c-24.593-33.036-62.206-53.231-103.192-55.409
				c-1.127-0.06-1.992-1.022-1.932-2.149c0.059-1.127,1.029-2.006,2.149-1.932c42.204,2.242,80.932,23.035,106.253,57.049
				c0.675,0.905,0.487,2.186-0.418,2.86C361.183,159.26,360.754,159.392,360.33,159.392z"/>
		</g>
		<g>
			<g>
				<path style="fill:#FFFFFF;" d="M372.671,306.416c-0.313,0-0.631-0.073-0.928-0.225c-1.005-0.513-1.404-1.745-0.889-2.749
					c9.975-19.51,15.034-40.591,15.034-62.658c0-26.704-7.647-52.606-22.113-74.906c-0.614-0.947-0.344-2.212,0.603-2.827
					c0.944-0.613,2.211-0.346,2.827,0.603c14.897,22.964,22.771,49.636,22.771,77.13c0,22.72-5.209,44.427-15.482,64.518
					C374.13,306.009,373.414,306.416,372.671,306.416z"/>
			</g>
		</g>
		<g>
			<path style="fill:#FFFFFF;stroke:#FFFFFF;stroke-width:7;stroke-linecap:round;stroke-linejoin:round;stroke-miterlimit:10;" d="
				M117.804,247.24"/>
		</g>
	</g>
</g>
</svg>
